<svg xmlns="http://www.w3.org/2000/svg" xmlns:xlink="http://www.w3.org/1999/xlink" width="840" height="494.2"><rect width="840" height="494.2" rx="5" ry="5" class="a"/><svg y="0%" x="0%"><circle cx="20" cy="20" r="6" fill="#ff5f58"/><circle cx="40" cy="20" r="6" fill="#ffbd2e"/><circle cx="60" cy="20" r="6" fill="#18c132"/></svg><svg height="434.2" viewBox="0 0 80 43.42" width="800" x="15" xmlns="http://www.w3.org/2000/svg" xmlns:xlink="http://www.w3.org/1999/xlink" y="50"><style>@keyframes n{0%{transform:translateX(0)}.14%{transform:translateX(-80px)}12.06%{transform:translateX(-160px)}12.19%{transform:translateX(-240px)}12.61%{transform:translateX(-320px)}12.63%{transform:translateX(-480px)}19.39%{transform:translateX(-560px)}25.24%{transform:translateX(-640px)}25.31%{transform:translateX(-880px)}31.11%{transform:translateX(-960px)}36.94%{transform:translateX(-1040px)}42.75%{transform:translateX(-1120px)}53.73%{transform:translateX(-1200px)}65.48%{transform:translateX(-1280px)}71.32%{transform:translateX(-1360px)}77.46%{transform:translateX(-1440px)}83.12%{transform:translateX(-1520px)}83.13%{transform:translateX(-1600px)}88.15%{transform:translateX(-1680px)}88.33%{transform:translateX(-1760px)}88.64%{transform:translateX(-1840px)}92.3%{transform:translateX(-1920px)}92.32%{transform:translateX(-2080px)}94.74%{transform:translateX(-2160px)}94.89%{transform:translateX(-2240px)}95.13%{transform:translateX(-2320px)}95.44%{transform:translateX(-2400px)}96.38%{transform:translateX(-2480px)}98.29%{transform:translateX(-2560px)}99.99%{transform:translateX(-2640px)}to{transform:translateX(-2800px)}}.a{fill:#282d35}.f{fill:#b9c0cb}.h{fill:#dbab79}.j{fill:#fff}.k{fill:#a8cc8c}</style><g font-size="1.67" font-family="Monaco,Consolas,Menlo,'Bitstream Vera Sans Mono','Powerline Symbols',monospace"><defs><symbol id="14"><text y="1.67" class="f">Downloading</text><text x="12.024" y="1.67" class="f">kapp</text><text x="17.034" y="1.67" class="f">&apos;</text><text x="18.036" y="1.67" class="j">bootstrap:nginx-ingress&apos;...</text></symbol><symbol id="1"><text y="1.67" class="f">bash-4.4$</text></symbol><symbol id="3"><text y="1.67" class="f">bash-4.4$</text><text x="10.02" y="1.67" class="f">ls</text></symbol><symbol id="4"><text y="1.67" class="f">LICENSE</text><text x="24.048" y="1.67" class="f">demo-data</text><text x="48.096" y="1.67" class="f">manifests</text><text x="72.144" y="1.67" class="f">stacks</text><text x="79.158" y="1.67" class="f">t</text></symbol><symbol id="5"><text y="1.67" class="f">emplates</text></symbol><symbol id="6"><text y="1.67" class="f">README.md</text><text x="24.048" y="1.67" class="f">kapp-vars</text><text x="48.096" y="1.67" class="f">providers</text><text x="72.144" y="1.67" class="f">sugarkub</text></symbol><symbol id="7"><text y="1.67" class="f">e-conf.yaml</text></symbol><symbol id="8"><text y="1.67" class="f">bash-4.4$</text><text x="10.02" y="1.67" class="f">sugarkube</text><text x="20.04" y="1.67" class="f">ws</text><text x="23.046" y="1.67" class="f">create</text><text x="30.06" y="1.67" class="f">stacks/local.yaml</text><text x="48.096" y="1.67" class="f">local-ops</text><text x="58.116" y="1.67" class="f">workspaces/local-ops/</text></symbol><symbol id="9"><text y="1.67" class="f">Stack</text><text x="6.012" y="1.67" class="f">config</text><text x="13.026" y="1.67" class="f">file</text><text x="18.036" y="1.67" class="f">&apos;</text><text x="19.038" y="1.67" fill="#b9c0cb" font-weight="700">stacks/local.yaml</text><text x="36.072" y="1.67" class="f">&apos;</text><text x="38.076" y="1.67" class="f">contains</text><text x="47.094" y="1.67" class="f">4</text><text x="49.098" y="1.67" class="f">manifest(s)</text><text x="61.122" y="1.67" class="f">and</text><text x="65.13" y="1.67" class="f">8</text><text x="67.134" y="1.67" class="f">kapp(s)</text><text x="75.15" y="1.67" class="f">in</text><text x="78.156" y="1.67" class="f">to</text></symbol><symbol id="10"><text y="1.67" class="f">tal.</text></symbol><symbol id="11"><text y="1.67" class="h">Creating/updating</text><text x="18.036" y="1.67" class="h">workspace</text><text x="28.056" y="1.67" class="h">at</text><text x="31.062" y="1.67" class="h">&apos;</text><text x="32.064" y="1.67" fill="#dbab79" font-weight="700">workspaces/local-ops/&apos;...</text></symbol><symbol id="12"><text y="1.67" class="f">Downloading</text><text x="12.024" y="1.67" class="f">kapp</text><text x="17.034" y="1.67" class="f">&apos;</text><text x="18.036" y="1.67" class="j">bootstrap:tiller&apos;...</text></symbol><symbol id="13"><text y="1.67" class="f">Downloading</text><text x="12.024" y="1.67" class="f">kapp</text><text x="17.034" y="1.67" class="f">&apos;</text><text x="18.036" y="1.67" class="j">bootstrap:cert-manager&apos;...</text></symbol><symbol id="2"><text y="1.67" class="f">bash-4.4$</text><text x="10.02" y="1.67" class="f">l</text></symbol><symbol id="15"><text y="1.67" class="f">Downloading</text><text x="12.024" y="1.67" class="f">kapp</text><text x="17.034" y="1.67" class="f">&apos;</text><text x="18.036" y="1.67" class="j">security:keycloak&apos;...</text></symbol><symbol id="16"><text y="1.67" class="f">Downloading</text><text x="12.024" y="1.67" class="f">kapp</text><text x="17.034" y="1.67" class="f">&apos;</text><text x="18.036" y="1.67" class="j">monitoring:prometheus&apos;...</text></symbol><symbol id="17"><text y="1.67" class="f">Downloading</text><text x="12.024" y="1.67" class="f">kapp</text><text x="17.034" y="1.67" class="f">&apos;</text><text x="18.036" y="1.67" class="j">monitoring:prometheus-operator&apos;...</text></symbol><symbol id="18"><text y="1.67" class="f">Downloading</text><text x="12.024" y="1.67" class="f">kapp</text><text x="17.034" y="1.67" class="f">&apos;</text><text x="18.036" y="1.67" class="j">monitoring:grafana&apos;...</text></symbol><symbol id="19"><text y="1.67" class="f">Downloading</text><text x="12.024" y="1.67" class="f">kapp</text><text x="17.034" y="1.67" class="f">&apos;</text><text x="18.036" y="1.67" class="j">ci-cd:jenkins&apos;...</text></symbol><symbol id="20"><text y="1.67" class="k">Finished</text><text x="9.018" y="1.67" class="k">downloading</text><text x="21.042" y="1.67" class="k">kapps</text></symbol><symbol id="21"><text y="1.67" class="f">Skipping</text><text x="9.018" y="1.67" class="f">rendering</text><text x="19.038" y="1.67" class="f">templates</text><text x="29.058" y="1.67" class="f">for</text><text x="33.066" y="1.67" class="f">kapps</text></symbol><symbol id="22"><text y="1.67" class="k">Workspace</text><text x="10.02" y="1.67" class="k">successfully</text><text x="23.046" y="1.67" class="k">created</text><text x="31.062" y="1.67" class="k">at</text><text x="34.068" y="1.67" class="k">&apos;/tmp/sample-project/workspaces/local-ops&apos;</text></symbol><symbol id="23"><text y="1.67" class="f">e-conf.yaml</text><text x="16.032" y="1.67" class="f">workspaces</text></symbol><symbol id="24"><text y="1.67" class="f">bash-4.4$</text><text x="10.02" y="1.67" class="f">ls</text><text x="13.026" y="1.67" class="f">workspaces/local-ops/</text></symbol><symbol id="25"><text y="1.67" class="f">bootstrap</text><text x="16.032" y="1.67" class="f">ci-cd</text><text x="32.064" y="1.67" class="f">monitoring</text><text x="48.096" y="1.67" class="f">security</text></symbol><symbol id="a"><path fill="transparent" d="M0 0h80v21H0z"/></symbol><symbol id="b"><path fill="#6f7683" d="M0 0h1.102v2.171H0z"/></symbol></defs><path class="a" d="M0 0h80v43.42H0z"/><g style="animation-duration:30.60677s;animation-iteration-count:infinite;animation-name:n;animation-timing-function:steps(1,end)"><svg width="2880"><svg><use xlink:href="#a"/><use xlink:href="#b" x="-.004"/></svg><svg x="80"><use xlink:href="#a"/><use xlink:href="#b" x="9.996"/><use xlink:href="#1"/></svg><svg x="160"><use xlink:href="#a"/><use xlink:href="#b" x="10.996"/><use xlink:href="#2"/></svg><svg x="240"><use xlink:href="#a"/><use xlink:href="#b" x="11.996"/><use xlink:href="#3"/></svg><svg x="320"><use xlink:href="#a"/><use xlink:href="#b" x="-.004" y="2.146"/><use xlink:href="#3"/></svg><svg x="400"><use xlink:href="#a"/><use xlink:href="#b" x="-.004" y="10.83"/><use xlink:href="#3"/><use xlink:href="#4" y="2.171"/><use xlink:href="#5" y="4.342"/><use xlink:href="#6" y="6.513"/><use xlink:href="#7" y="8.684"/></svg><svg x="480"><use xlink:href="#a"/><use xlink:href="#b" x="9.996" y="10.83"/><use xlink:href="#3"/><use xlink:href="#4" y="2.171"/><use xlink:href="#5" y="4.342"/><use xlink:href="#6" y="6.513"/><use xlink:href="#7" y="8.684"/><use xlink:href="#1" y="10.855"/></svg><svg x="560"><use xlink:href="#a"/><use xlink:href="#b" x="78.996" y="10.83"/><use xlink:href="#3"/><use xlink:href="#4" y="2.171"/><use xlink:href="#5" y="4.342"/><use xlink:href="#6" y="6.513"/><use xlink:href="#7" y="8.684"/><use xlink:href="#8" y="10.855"/></svg><svg x="640"><use xlink:href="#a"/><use xlink:href="#b" x="-.004" y="13.001"/><use xlink:href="#3"/><use xlink:href="#4" y="2.171"/><use xlink:href="#5" y="4.342"/><use xlink:href="#6" y="6.513"/><use xlink:href="#7" y="8.684"/><use xlink:href="#8" y="10.855"/></svg><svg x="720"><use xlink:href="#a"/><use xlink:href="#b" x="-.004" y="19.514"/><use xlink:href="#3"/><use xlink:href="#4" y="2.171"/><use xlink:href="#5" y="4.342"/><use xlink:href="#6" y="6.513"/><use xlink:href="#7" y="8.684"/><use xlink:href="#8" y="10.855"/><use xlink:href="#9" y="13.026"/><use xlink:href="#10" y="15.197"/></svg><svg x="800"><use xlink:href="#a"/><use xlink:href="#b" x="-.004" y="21.685"/><use xlink:href="#3"/><use xlink:href="#4" y="2.171"/><use xlink:href="#5" y="4.342"/><use xlink:href="#6" y="6.513"/><use xlink:href="#7" y="8.684"/><use xlink:href="#8" y="10.855"/><use xlink:href="#9" y="13.026"/><use xlink:href="#10" y="15.197"/><use xlink:href="#11" y="19.539"/></svg><svg x="880"><use xlink:href="#a"/><use xlink:href="#b" x="-.004" y="23.856"/><use xlink:href="#3"/><use xlink:href="#4" y="2.171"/><use xlink:href="#5" y="4.342"/><use xlink:href="#6" y="6.513"/><use xlink:href="#7" y="8.684"/><use xlink:href="#8" y="10.855"/><use xlink:href="#9" y="13.026"/><use xlink:href="#10" y="15.197"/><use xlink:href="#11" y="19.539"/><use xlink:href="#12" y="21.71"/></svg><svg x="960"><use xlink:href="#a"/><use xlink:href="#b" x="-.004" y="26.027"/><use xlink:href="#3"/><use xlink:href="#4" y="2.171"/><use xlink:href="#5" y="4.342"/><use xlink:href="#6" y="6.513"/><use xlink:href="#7" y="8.684"/><use xlink:href="#8" y="10.855"/><use xlink:href="#9" y="13.026"/><use xlink:href="#10" y="15.197"/><use xlink:href="#11" y="19.539"/><use xlink:href="#12" y="21.71"/><use xlink:href="#13" y="23.881"/></svg><svg x="1040"><use xlink:href="#a"/><use xlink:href="#b" x="-.004" y="28.198"/><use xlink:href="#3"/><use xlink:href="#4" y="2.171"/><use xlink:href="#5" y="4.342"/><use xlink:href="#6" y="6.513"/><use xlink:href="#7" y="8.684"/><use xlink:href="#8" y="10.855"/><use xlink:href="#9" y="13.026"/><use xlink:href="#10" y="15.197"/><use xlink:href="#11" y="19.539"/><use xlink:href="#12" y="21.71"/><use xlink:href="#13" y="23.881"/><use xlink:href="#14" y="26.052"/></svg><svg x="1120"><use xlink:href="#a"/><use xlink:href="#b" x="-.004" y="30.369"/><use xlink:href="#3"/><use xlink:href="#4" y="2.171"/><use xlink:href="#5" y="4.342"/><use xlink:href="#6" y="6.513"/><use xlink:href="#7" y="8.684"/><use xlink:href="#8" y="10.855"/><use xlink:href="#9" y="13.026"/><use xlink:href="#10" y="15.197"/><use xlink:href="#11" y="19.539"/><use xlink:href="#12" y="21.71"/><use xlink:href="#13" y="23.881"/><use xlink:href="#14" y="26.052"/><use xlink:href="#15" y="28.223"/></svg><svg x="1200"><use xlink:href="#a"/><use xlink:href="#b" x="-.004" y="32.54"/><use xlink:href="#3"/><use xlink:href="#4" y="2.171"/><use xlink:href="#5" y="4.342"/><use xlink:href="#6" y="6.513"/><use xlink:href="#7" y="8.684"/><use xlink:href="#8" y="10.855"/><use xlink:href="#9" y="13.026"/><use xlink:href="#10" y="15.197"/><use xlink:href="#11" y="19.539"/><use xlink:href="#12" y="21.71"/><use xlink:href="#13" y="23.881"/><use xlink:href="#14" y="26.052"/><use xlink:href="#15" y="28.223"/><use xlink:href="#16" y="30.394"/></svg><svg x="1280"><use xlink:href="#a"/><use xlink:href="#b" x="-.004" y="34.711"/><use xlink:href="#3"/><use xlink:href="#4" y="2.171"/><use xlink:href="#5" y="4.342"/><use xlink:href="#6" y="6.513"/><use xlink:href="#7" y="8.684"/><use xlink:href="#8" y="10.855"/><use xlink:href="#9" y="13.026"/><use xlink:href="#10" y="15.197"/><use xlink:href="#11" y="19.539"/><use xlink:href="#12" y="21.71"/><use xlink:href="#13" y="23.881"/><use xlink:href="#14" y="26.052"/><use xlink:href="#15" y="28.223"/><use xlink:href="#16" y="30.394"/><use xlink:href="#17" y="32.565"/></svg><svg x="1360"><use xlink:href="#a"/><use xlink:href="#b" x="-.004" y="36.882"/><use xlink:href="#3"/><use xlink:href="#4" y="2.171"/><use xlink:href="#5" y="4.342"/><use xlink:href="#6" y="6.513"/><use xlink:href="#7" y="8.684"/><use xlink:href="#8" y="10.855"/><use xlink:href="#9" y="13.026"/><use xlink:href="#10" y="15.197"/><use xlink:href="#11" y="19.539"/><use xlink:href="#12" y="21.71"/><use xlink:href="#13" y="23.881"/><use xlink:href="#14" y="26.052"/><use xlink:href="#15" y="28.223"/><use xlink:href="#16" y="30.394"/><use xlink:href="#17" y="32.565"/><use xlink:href="#18" y="34.736"/></svg><svg x="1440"><use xlink:href="#a"/><use xlink:href="#b" x="-.004" y="39.053"/><use xlink:href="#3"/><use xlink:href="#4" y="2.171"/><use xlink:href="#5" y="4.342"/><use xlink:href="#6" y="6.513"/><use xlink:href="#7" y="8.684"/><use xlink:href="#8" y="10.855"/><use xlink:href="#9" y="13.026"/><use xlink:href="#10" y="15.197"/><use xlink:href="#11" y="19.539"/><use xlink:href="#12" y="21.71"/><use xlink:href="#13" y="23.881"/><use xlink:href="#14" y="26.052"/><use xlink:href="#15" y="28.223"/><use xlink:href="#16" y="30.394"/><use xlink:href="#17" y="32.565"/><use xlink:href="#18" y="34.736"/><use xlink:href="#19" y="36.907"/></svg><svg x="1520"><use xlink:href="#a"/><use xlink:href="#b" x="-.004" y="43.395"/><use xlink:href="#5"/><use xlink:href="#6" y="2.171"/><use xlink:href="#7" y="4.342"/><use xlink:href="#8" y="6.513"/><use xlink:href="#9" y="8.684"/><use xlink:href="#10" y="10.855"/><use xlink:href="#11" y="15.197"/><use xlink:href="#12" y="17.368"/><use xlink:href="#13" y="19.539"/><use xlink:href="#14" y="21.71"/><use xlink:href="#15" y="23.881"/><use xlink:href="#16" y="26.052"/><use xlink:href="#17" y="28.223"/><use xlink:href="#18" y="30.394"/><use xlink:href="#19" y="32.565"/><use xlink:href="#20" y="34.736"/><use xlink:href="#21" y="36.907"/><use xlink:href="#22" y="41.249"/></svg><svg x="1600"><use xlink:href="#a"/><use xlink:href="#b" x="9.996" y="43.395"/><use xlink:href="#5"/><use xlink:href="#6" y="2.171"/><use xlink:href="#7" y="4.342"/><use xlink:href="#8" y="6.513"/><use xlink:href="#9" y="8.684"/><use xlink:href="#10" y="10.855"/><use xlink:href="#11" y="15.197"/><use xlink:href="#12" y="17.368"/><use xlink:href="#13" y="19.539"/><use xlink:href="#14" y="21.71"/><use xlink:href="#15" y="23.881"/><use xlink:href="#16" y="26.052"/><use xlink:href="#17" y="28.223"/><use xlink:href="#18" y="30.394"/><use xlink:href="#19" y="32.565"/><use xlink:href="#20" y="34.736"/><use xlink:href="#21" y="36.907"/><use xlink:href="#22" y="41.249"/><use xlink:href="#1" y="43.42"/></svg><svg x="1680"><use xlink:href="#a"/><use xlink:href="#b" x="10.996" y="43.395"/><use xlink:href="#5"/><use xlink:href="#6" y="2.171"/><use xlink:href="#7" y="4.342"/><use xlink:href="#8" y="6.513"/><use xlink:href="#9" y="8.684"/><use xlink:href="#10" y="10.855"/><use xlink:href="#11" y="15.197"/><use xlink:href="#12" y="17.368"/><use xlink:href="#13" y="19.539"/><use xlink:href="#14" y="21.71"/><use xlink:href="#15" y="23.881"/><use xlink:href="#16" y="26.052"/><use xlink:href="#17" y="28.223"/><use xlink:href="#18" y="30.394"/><use xlink:href="#19" y="32.565"/><use xlink:href="#20" y="34.736"/><use xlink:href="#21" y="36.907"/><use xlink:href="#22" y="41.249"/><use xlink:href="#2" y="43.42"/></svg><svg x="1760"><use xlink:href="#a"/><use xlink:href="#b" x="11.996" y="43.395"/><use xlink:href="#5"/><use xlink:href="#6" y="2.171"/><use xlink:href="#7" y="4.342"/><use xlink:href="#8" y="6.513"/><use xlink:href="#9" y="8.684"/><use xlink:href="#10" y="10.855"/><use xlink:href="#11" y="15.197"/><use xlink:href="#12" y="17.368"/><use xlink:href="#13" y="19.539"/><use xlink:href="#14" y="21.71"/><use xlink:href="#15" y="23.881"/><use xlink:href="#16" y="26.052"/><use xlink:href="#17" y="28.223"/><use xlink:href="#18" y="30.394"/><use xlink:href="#19" y="32.565"/><use xlink:href="#20" y="34.736"/><use xlink:href="#21" y="36.907"/><use xlink:href="#22" y="41.249"/><use xlink:href="#3" y="43.42"/></svg><svg x="1840"><use xlink:href="#a"/><use xlink:href="#b" x="12.996" y="43.395"/><use xlink:href="#5"/><use xlink:href="#6" y="2.171"/><use xlink:href="#7" y="4.342"/><use xlink:href="#8" y="6.513"/><use xlink:href="#9" y="8.684"/><use xlink:href="#10" y="10.855"/><use xlink:href="#11" y="15.197"/><use xlink:href="#12" y="17.368"/><use xlink:href="#13" y="19.539"/><use xlink:href="#14" y="21.71"/><use xlink:href="#15" y="23.881"/><use xlink:href="#16" y="26.052"/><use xlink:href="#17" y="28.223"/><use xlink:href="#18" y="30.394"/><use xlink:href="#19" y="32.565"/><use xlink:href="#20" y="34.736"/><use xlink:href="#21" y="36.907"/><use xlink:href="#22" y="41.249"/><use xlink:href="#3" y="43.42"/></svg><svg x="1920"><use xlink:href="#a"/><use xlink:href="#b" x="-.004" y="43.395"/><use xlink:href="#6"/><use xlink:href="#7" y="2.171"/><use xlink:href="#8" y="4.342"/><use xlink:href="#9" y="6.513"/><use xlink:href="#10" y="8.684"/><use xlink:href="#11" y="13.026"/><use xlink:href="#12" y="15.197"/><use xlink:href="#13" y="17.368"/><use xlink:href="#14" y="19.539"/><use xlink:href="#15" y="21.71"/><use xlink:href="#16" y="23.881"/><use xlink:href="#17" y="26.052"/><use xlink:href="#18" y="28.223"/><use xlink:href="#19" y="30.394"/><use xlink:href="#20" y="32.565"/><use xlink:href="#21" y="34.736"/><use xlink:href="#22" y="39.078"/><use xlink:href="#3" y="41.249"/></svg><svg x="2000"><use xlink:href="#a"/><use xlink:href="#b" x="-.004" y="43.395"/><use xlink:href="#10"/><use xlink:href="#11" y="4.342"/><use xlink:href="#12" y="6.513"/><use xlink:href="#13" y="8.684"/><use xlink:href="#14" y="10.855"/><use xlink:href="#15" y="13.026"/><use xlink:href="#16" y="15.197"/><use xlink:href="#17" y="17.368"/><use xlink:href="#18" y="19.539"/><use xlink:href="#19" y="21.71"/><use xlink:href="#20" y="23.881"/><use xlink:href="#21" y="26.052"/><use xlink:href="#22" y="30.394"/><use xlink:href="#3" y="32.565"/><use xlink:href="#4" y="34.736"/><use xlink:href="#5" y="36.907"/><use xlink:href="#6" y="39.078"/><use xlink:href="#23" y="41.249"/></svg><svg x="2080"><use xlink:href="#a"/><use xlink:href="#b" x="9.996" y="43.395"/><use xlink:href="#10"/><use xlink:href="#11" y="4.342"/><use xlink:href="#12" y="6.513"/><use xlink:href="#13" y="8.684"/><use xlink:href="#14" y="10.855"/><use xlink:href="#15" y="13.026"/><use xlink:href="#16" y="15.197"/><use xlink:href="#17" y="17.368"/><use xlink:href="#18" y="19.539"/><use xlink:href="#19" y="21.71"/><use xlink:href="#20" y="23.881"/><use xlink:href="#21" y="26.052"/><use xlink:href="#22" y="30.394"/><use xlink:href="#3" y="32.565"/><use xlink:href="#4" y="34.736"/><use xlink:href="#5" y="36.907"/><use xlink:href="#6" y="39.078"/><use xlink:href="#23" y="41.249"/><use xlink:href="#1" y="43.42"/></svg><svg x="2160"><use xlink:href="#a"/><use xlink:href="#b" x="10.996" y="43.395"/><use xlink:href="#10"/><use xlink:href="#11" y="4.342"/><use xlink:href="#12" y="6.513"/><use xlink:href="#13" y="8.684"/><use xlink:href="#14" y="10.855"/><use xlink:href="#15" y="13.026"/><use xlink:href="#16" y="15.197"/><use xlink:href="#17" y="17.368"/><use xlink:href="#18" y="19.539"/><use xlink:href="#19" y="21.71"/><use xlink:href="#20" y="23.881"/><use xlink:href="#21" y="26.052"/><use xlink:href="#22" y="30.394"/><use xlink:href="#3" y="32.565"/><use xlink:href="#4" y="34.736"/><use xlink:href="#5" y="36.907"/><use xlink:href="#6" y="39.078"/><use xlink:href="#23" y="41.249"/><use xlink:href="#2" y="43.42"/></svg><svg x="2240"><use xlink:href="#a"/><use xlink:href="#b" x="11.996" y="43.395"/><use xlink:href="#10"/><use xlink:href="#11" y="4.342"/><use xlink:href="#12" y="6.513"/><use xlink:href="#13" y="8.684"/><use xlink:href="#14" y="10.855"/><use xlink:href="#15" y="13.026"/><use xlink:href="#16" y="15.197"/><use xlink:href="#17" y="17.368"/><use xlink:href="#18" y="19.539"/><use xlink:href="#19" y="21.71"/><use xlink:href="#20" y="23.881"/><use xlink:href="#21" y="26.052"/><use xlink:href="#22" y="30.394"/><use xlink:href="#3" y="32.565"/><use xlink:href="#4" y="34.736"/><use xlink:href="#5" y="36.907"/><use xlink:href="#6" y="39.078"/><use xlink:href="#23" y="41.249"/><use xlink:href="#3" y="43.42"/></svg><svg x="2320"><use xlink:href="#a"/><use xlink:href="#b" x="12.996" y="43.395"/><use xlink:href="#10"/><use xlink:href="#11" y="4.342"/><use xlink:href="#12" y="6.513"/><use xlink:href="#13" y="8.684"/><use xlink:href="#14" y="10.855"/><use xlink:href="#15" y="13.026"/><use xlink:href="#16" y="15.197"/><use xlink:href="#17" y="17.368"/><use xlink:href="#18" y="19.539"/><use xlink:href="#19" y="21.71"/><use xlink:href="#20" y="23.881"/><use xlink:href="#21" y="26.052"/><use xlink:href="#22" y="30.394"/><use xlink:href="#3" y="32.565"/><use xlink:href="#4" y="34.736"/><use xlink:href="#5" y="36.907"/><use xlink:href="#6" y="39.078"/><use xlink:href="#23" y="41.249"/><use xlink:href="#3" y="43.42"/></svg><svg x="2400"><use xlink:href="#a"/><use xlink:href="#b" x="13.996" y="43.395"/><use xlink:href="#10"/><use xlink:href="#11" y="4.342"/><use xlink:href="#12" y="6.513"/><use xlink:href="#13" y="8.684"/><use xlink:href="#14" y="10.855"/><use xlink:href="#15" y="13.026"/><use xlink:href="#16" y="15.197"/><use xlink:href="#17" y="17.368"/><use xlink:href="#18" y="19.539"/><use xlink:href="#19" y="21.71"/><use xlink:href="#20" y="23.881"/><use xlink:href="#21" y="26.052"/><use xlink:href="#22" y="30.394"/><use xlink:href="#3" y="32.565"/><use xlink:href="#4" y="34.736"/><use xlink:href="#5" y="36.907"/><use xlink:href="#6" y="39.078"/><use xlink:href="#23" y="41.249"/><text y="45.09" class="f">bash-4.4$</text><text x="10.02" y="45.09" class="f">ls</text><text x="13.026" y="45.09" class="f">w</text></svg><svg x="2480"><use xlink:href="#a"/><use xlink:href="#b" x="23.996" y="43.395"/><use xlink:href="#10"/><use xlink:href="#11" y="4.342"/><use xlink:href="#12" y="6.513"/><use xlink:href="#13" y="8.684"/><use xlink:href="#14" y="10.855"/><use xlink:href="#15" y="13.026"/><use xlink:href="#16" y="15.197"/><use xlink:href="#17" y="17.368"/><use xlink:href="#18" y="19.539"/><use xlink:href="#19" y="21.71"/><use xlink:href="#20" y="23.881"/><use xlink:href="#21" y="26.052"/><use xlink:href="#22" y="30.394"/><use xlink:href="#3" y="32.565"/><use xlink:href="#4" y="34.736"/><use xlink:href="#5" y="36.907"/><use xlink:href="#6" y="39.078"/><use xlink:href="#23" y="41.249"/><text y="45.09" class="f">bash-4.4$</text><text x="10.02" y="45.09" class="f">ls</text><text x="13.026" y="45.09" class="f">workspaces/</text></svg><svg x="2560"><use xlink:href="#a"/><use xlink:href="#b" x="33.996" y="43.395"/><use xlink:href="#10"/><use xlink:href="#11" y="4.342"/><use xlink:href="#12" y="6.513"/><use xlink:href="#13" y="8.684"/><use xlink:href="#14" y="10.855"/><use xlink:href="#15" y="13.026"/><use xlink:href="#16" y="15.197"/><use xlink:href="#17" y="17.368"/><use xlink:href="#18" y="19.539"/><use xlink:href="#19" y="21.71"/><use xlink:href="#20" y="23.881"/><use xlink:href="#21" y="26.052"/><use xlink:href="#22" y="30.394"/><use xlink:href="#3" y="32.565"/><use xlink:href="#4" y="34.736"/><use xlink:href="#5" y="36.907"/><use xlink:href="#6" y="39.078"/><use xlink:href="#23" y="41.249"/><use xlink:href="#24" y="43.42"/></svg><svg x="2640"><use xlink:href="#a"/><use xlink:href="#b" x="-.004" y="43.395"/><use xlink:href="#11" y="2.171"/><use xlink:href="#12" y="4.342"/><use xlink:href="#13" y="6.513"/><use xlink:href="#14" y="8.684"/><use xlink:href="#15" y="10.855"/><use xlink:href="#16" y="13.026"/><use xlink:href="#17" y="15.197"/><use xlink:href="#18" y="17.368"/><use xlink:href="#19" y="19.539"/><use xlink:href="#20" y="21.71"/><use xlink:href="#21" y="23.881"/><use xlink:href="#22" y="28.223"/><use xlink:href="#3" y="30.394"/><use xlink:href="#4" y="32.565"/><use xlink:href="#5" y="34.736"/><use xlink:href="#6" y="36.907"/><use xlink:href="#23" y="39.078"/><use xlink:href="#24" y="41.249"/></svg><svg x="2720"><use xlink:href="#a"/><use xlink:href="#b" x="-.004" y="43.395"/><use xlink:href="#11"/><use xlink:href="#12" y="2.171"/><use xlink:href="#13" y="4.342"/><use xlink:href="#14" y="6.513"/><use xlink:href="#15" y="8.684"/><use xlink:href="#16" y="10.855"/><use xlink:href="#17" y="13.026"/><use xlink:href="#18" y="15.197"/><use xlink:href="#19" y="17.368"/><use xlink:href="#20" y="19.539"/><use xlink:href="#21" y="21.71"/><use xlink:href="#22" y="26.052"/><use xlink:href="#3" y="28.223"/><use xlink:href="#4" y="30.394"/><use xlink:href="#5" y="32.565"/><use xlink:href="#6" y="34.736"/><use xlink:href="#23" y="36.907"/><use xlink:href="#24" y="39.078"/><use xlink:href="#25" y="41.249"/></svg><svg x="2800"><use xlink:href="#a"/><use xlink:href="#b" x="9.996" y="43.395"/><use xlink:href="#11"/><use xlink:href="#12" y="2.171"/><use xlink:href="#13" y="4.342"/><use xlink:href="#14" y="6.513"/><use xlink:href="#15" y="8.684"/><use xlink:href="#16" y="10.855"/><use xlink:href="#17" y="13.026"/><use xlink:href="#18" y="15.197"/><use xlink:href="#19" y="17.368"/><use xlink:href="#20" y="19.539"/><use xlink:href="#21" y="21.71"/><use xlink:href="#22" y="26.052"/><use xlink:href="#3" y="28.223"/><use xlink:href="#4" y="30.394"/><use xlink:href="#5" y="32.565"/><use xlink:href="#6" y="34.736"/><use xlink:href="#23" y="36.907"/><use xlink:href="#24" y="39.078"/><use xlink:href="#25" y="41.249"/><use xlink:href="#1" y="43.42"/></svg></svg></g></g></svg></svg>