<svg xmlns="http://www.w3.org/2000/svg" xmlns:xlink="http://www.w3.org/1999/xlink" width="1060" height="514.2"><rect width="1060" height="514.2" rx="5" ry="5" class="a"/><svg y="0%" x="0%"><circle cx="20" cy="20" r="6" fill="#ff5f58"/><circle cx="40" cy="20" r="6" fill="#ffbd2e"/><circle cx="60" cy="20" r="6" fill="#18c132"/></svg><svg height="434.2" viewBox="0 0 100 43.42" width="1000" x="25" xmlns="http://www.w3.org/2000/svg" xmlns:xlink="http://www.w3.org/1999/xlink" y="60"><style>@keyframes n{0%{transform:translateX(0)}.12%{transform:translateX(-100px)}10.37%{transform:translateX(-200px)}10.48%{transform:translateX(-300px)}10.84%{transform:translateX(-400px)}10.85%{transform:translateX(-600px)}16.66%{transform:translateX(-700px)}21.69%{transform:translateX(-800px)}21.75%{transform:translateX(-1000px)}21.76%{transform:translateX(-1100px)}26.74%{transform:translateX(-1200px)}31.76%{transform:translateX(-1300px)}36.75%{transform:translateX(-1400px)}46.18%{transform:translateX(-1500px)}56.28%{transform:translateX(-1600px)}61.31%{transform:translateX(-1700px)}66.58%{transform:translateX(-1800px)}71.45%{transform:translateX(-2000px)}75.77%{transform:translateX(-2100px)}75.93%{transform:translateX(-2200px)}76.2%{transform:translateX(-2300px)}79.34%{transform:translateX(-2400px)}79.35%{transform:translateX(-2600px)}81.43%{transform:translateX(-2700px)}81.57%{transform:translateX(-2800px)}81.77%{transform:translateX(-2900px)}82.04%{transform:translateX(-3000px)}82.85%{transform:translateX(-3100px)}84.49%{transform:translateX(-3200px)}85.95%{transform:translateX(-3300px)}85.96%{transform:translateX(-3400px)}to{transform:translateX(-3500px)}}.a{fill:#282d35}.f{fill:#b9c0cb}.h{fill:#dbab79}.j{fill:#fff}.k{fill:#a8cc8c}</style><g font-size="1.67" font-family="Monaco,Consolas,Menlo,'Bitstream Vera Sans Mono','Powerline Symbols',monospace"><defs><symbol id="14"><text y="1.67" class="f">Downloading</text><text x="12.024" y="1.67" class="f">kapp</text><text x="17.034" y="1.67" class="f">&apos;</text><text x="18.036" y="1.67" class="j">monitoring:prometheus&apos;...</text></symbol><symbol id="1"><text y="1.67" class="f">bash-4.4$</text></symbol><symbol id="3"><text y="1.67" class="f">bash-4.4$</text><text x="10.02" y="1.67" class="f">ls</text></symbol><symbol id="4"><text y="1.67" class="f">LICENSE</text><text x="24.048" y="1.67" class="f">demo-data</text><text x="48.096" y="1.67" class="f">manifests</text><text x="72.144" y="1.67" class="f">stacks</text><text x="96.192" y="1.67" class="f">temp</text></symbol><symbol id="5"><text y="1.67" class="f">lates</text></symbol><symbol id="6"><text y="1.67" class="f">README.md</text><text x="24.048" y="1.67" class="f">kapp-vars</text><text x="48.096" y="1.67" class="f">providers</text><text x="72.144" y="1.67" class="f">sugarkube-conf.yaml</text></symbol><symbol id="7"><text y="1.67" class="f">bash-4.4$</text><text x="10.02" y="1.67" class="f">sugarkube</text><text x="20.04" y="1.67" class="f">ws</text><text x="23.046" y="1.67" class="f">create</text><text x="30.06" y="1.67" class="f">stacks/local.yaml</text><text x="48.096" y="1.67" class="f">local-ops</text><text x="58.116" y="1.67" class="f">workspaces/local-ops/</text></symbol><symbol id="8"><text y="1.67" class="f">Stack</text><text x="6.012" y="1.67" class="f">config</text><text x="13.026" y="1.67" class="f">file</text><text x="18.036" y="1.67" class="f">&apos;</text><text x="19.038" y="1.67" fill="#b9c0cb" font-weight="700">stacks/local.yaml</text><text x="36.072" y="1.67" class="f">&apos;</text><text x="38.076" y="1.67" class="f">contains</text><text x="47.094" y="1.67" class="f">4</text><text x="49.098" y="1.67" class="f">manifest(s)</text><text x="61.122" y="1.67" class="f">and</text><text x="65.13" y="1.67" class="f">8</text><text x="67.134" y="1.67" class="f">kapp(s)</text><text x="75.15" y="1.67" class="f">in</text><text x="78.156" y="1.67" class="f">total.</text></symbol><symbol id="9"><text y="1.67" class="h">Creating/updating</text><text x="18.036" y="1.67" class="h">workspace</text><text x="28.056" y="1.67" class="h">at</text><text x="31.062" y="1.67" class="h">&apos;</text><text x="32.064" y="1.67" fill="#dbab79" font-weight="700">workspaces/local-ops/&apos;...</text></symbol><symbol id="10"><text y="1.67" class="f">Downloading</text><text x="12.024" y="1.67" class="f">kapp</text><text x="17.034" y="1.67" class="f">&apos;</text><text x="18.036" y="1.67" class="j">bootstrap:tiller&apos;...</text></symbol><symbol id="11"><text y="1.67" class="f">Downloading</text><text x="12.024" y="1.67" class="f">kapp</text><text x="17.034" y="1.67" class="f">&apos;</text><text x="18.036" y="1.67" class="j">bootstrap:cert-manager&apos;...</text></symbol><symbol id="12"><text y="1.67" class="f">Downloading</text><text x="12.024" y="1.67" class="f">kapp</text><text x="17.034" y="1.67" class="f">&apos;</text><text x="18.036" y="1.67" class="j">bootstrap:nginx-ingress&apos;...</text></symbol><symbol id="13"><text y="1.67" class="f">Downloading</text><text x="12.024" y="1.67" class="f">kapp</text><text x="17.034" y="1.67" class="f">&apos;</text><text x="18.036" y="1.67" class="j">security:keycloak&apos;...</text></symbol><symbol id="2"><text y="1.67" class="f">bash-4.4$</text><text x="10.02" y="1.67" class="f">l</text></symbol><symbol id="15"><text y="1.67" class="f">Downloading</text><text x="12.024" y="1.67" class="f">kapp</text><text x="17.034" y="1.67" class="f">&apos;</text><text x="18.036" y="1.67" class="j">monitoring:prometheus-operator&apos;...</text></symbol><symbol id="16"><text y="1.67" class="f">Downloading</text><text x="12.024" y="1.67" class="f">kapp</text><text x="17.034" y="1.67" class="f">&apos;</text><text x="18.036" y="1.67" class="j">monitoring:grafana&apos;...</text></symbol><symbol id="17"><text y="1.67" class="f">Downloading</text><text x="12.024" y="1.67" class="f">kapp</text><text x="17.034" y="1.67" class="f">&apos;</text><text x="18.036" y="1.67" class="j">ci-cd:jenkins&apos;...</text></symbol><symbol id="18"><text y="1.67" class="k">Finished</text><text x="9.018" y="1.67" class="k">downloading</text><text x="21.042" y="1.67" class="k">kapps</text></symbol><symbol id="19"><text y="1.67" class="f">Skipping</text><text x="9.018" y="1.67" class="f">rendering</text><text x="19.038" y="1.67" class="f">templates</text><text x="29.058" y="1.67" class="f">for</text><text x="33.066" y="1.67" class="f">kapps</text></symbol><symbol id="20"><text y="1.67" class="k">Workspace</text><text x="10.02" y="1.67" class="k">successfully</text><text x="23.046" y="1.67" class="k">created</text><text x="31.062" y="1.67" class="k">at</text><text x="34.068" y="1.67" class="k">&apos;/tmp/sample-project/workspaces/local-ops&apos;</text></symbol><symbol id="21"><text y="1.67" class="f">README.md</text><text x="24.048" y="1.67" class="f">kapp-vars</text><text x="48.096" y="1.67" class="f">providers</text><text x="72.144" y="1.67" class="f">sugarkube-conf.yaml</text><text x="96.192" y="1.67" class="f">work</text></symbol><symbol id="22"><text y="1.67" class="f">spaces</text></symbol><symbol id="23"><text y="1.67" class="f">bash-4.4$</text><text x="10.02" y="1.67" class="f">ls</text><text x="13.026" y="1.67" class="f">workspaces/local-ops/</text></symbol><symbol id="24"><text y="1.67" class="f">bootstrap</text><text x="16.032" y="1.67" class="f">ci-cd</text><text x="32.064" y="1.67" class="f">monitoring</text><text x="48.096" y="1.67" class="f">security</text></symbol><symbol id="a"><path fill="transparent" d="M0 0h100v21H0z"/></symbol><symbol id="b"><path fill="#6f7683" d="M0 0h1.102v2.171H0z"/></symbol></defs><path class="a" d="M0 0h100v43.42H0z"/><g style="animation-duration:35.60677s;animation-iteration-count:infinite;animation-name:n;animation-timing-function:steps(1,end)"><svg width="3600"><svg><use xlink:href="#a"/><use xlink:href="#b" x="-.004"/></svg><svg x="100"><use xlink:href="#a"/><use xlink:href="#b" x="9.996"/><use xlink:href="#1"/></svg><svg x="200"><use xlink:href="#a"/><use xlink:href="#b" x="10.996"/><use xlink:href="#2"/></svg><svg x="300"><use xlink:href="#a"/><use xlink:href="#b" x="11.996"/><use xlink:href="#3"/></svg><svg x="400"><use xlink:href="#a"/><use xlink:href="#b" x="-.004" y="2.146"/><use xlink:href="#3"/></svg><svg x="500"><use xlink:href="#a"/><use xlink:href="#b" x="-.004" y="8.659"/><use xlink:href="#3"/><use xlink:href="#4" y="2.171"/><use xlink:href="#5" y="4.342"/><use xlink:href="#6" y="6.513"/></svg><svg x="600"><use xlink:href="#a"/><use xlink:href="#b" x="9.996" y="8.659"/><use xlink:href="#3"/><use xlink:href="#4" y="2.171"/><use xlink:href="#5" y="4.342"/><use xlink:href="#6" y="6.513"/><use xlink:href="#1" y="8.684"/></svg><svg x="700"><use xlink:href="#a"/><use xlink:href="#b" x="78.996" y="8.659"/><use xlink:href="#3"/><use xlink:href="#4" y="2.171"/><use xlink:href="#5" y="4.342"/><use xlink:href="#6" y="6.513"/><use xlink:href="#7" y="8.684"/></svg><svg x="800"><use xlink:href="#a"/><use xlink:href="#b" x="-.004" y="10.83"/><use xlink:href="#3"/><use xlink:href="#4" y="2.171"/><use xlink:href="#5" y="4.342"/><use xlink:href="#6" y="6.513"/><use xlink:href="#7" y="8.684"/></svg><svg x="900"><use xlink:href="#a"/><use xlink:href="#b" x="-.004" y="15.172"/><use xlink:href="#3"/><use xlink:href="#4" y="2.171"/><use xlink:href="#5" y="4.342"/><use xlink:href="#6" y="6.513"/><use xlink:href="#7" y="8.684"/><use xlink:href="#8" y="10.855"/></svg><svg x="1000"><use xlink:href="#a"/><use xlink:href="#b" x="-.004" y="17.343"/><use xlink:href="#3"/><use xlink:href="#4" y="2.171"/><use xlink:href="#5" y="4.342"/><use xlink:href="#6" y="6.513"/><use xlink:href="#7" y="8.684"/><use xlink:href="#8" y="10.855"/><use xlink:href="#9" y="15.197"/></svg><svg x="1100"><use xlink:href="#a"/><use xlink:href="#b" x="-.004" y="19.514"/><use xlink:href="#3"/><use xlink:href="#4" y="2.171"/><use xlink:href="#5" y="4.342"/><use xlink:href="#6" y="6.513"/><use xlink:href="#7" y="8.684"/><use xlink:href="#8" y="10.855"/><use xlink:href="#9" y="15.197"/><use xlink:href="#10" y="17.368"/></svg><svg x="1200"><use xlink:href="#a"/><use xlink:href="#b" x="-.004" y="21.685"/><use xlink:href="#3"/><use xlink:href="#4" y="2.171"/><use xlink:href="#5" y="4.342"/><use xlink:href="#6" y="6.513"/><use xlink:href="#7" y="8.684"/><use xlink:href="#8" y="10.855"/><use xlink:href="#9" y="15.197"/><use xlink:href="#10" y="17.368"/><use xlink:href="#11" y="19.539"/></svg><svg x="1300"><use xlink:href="#a"/><use xlink:href="#b" x="-.004" y="23.856"/><use xlink:href="#3"/><use xlink:href="#4" y="2.171"/><use xlink:href="#5" y="4.342"/><use xlink:href="#6" y="6.513"/><use xlink:href="#7" y="8.684"/><use xlink:href="#8" y="10.855"/><use xlink:href="#9" y="15.197"/><use xlink:href="#10" y="17.368"/><use xlink:href="#11" y="19.539"/><use xlink:href="#12" y="21.71"/></svg><svg x="1400"><use xlink:href="#a"/><use xlink:href="#b" x="-.004" y="26.027"/><use xlink:href="#3"/><use xlink:href="#4" y="2.171"/><use xlink:href="#5" y="4.342"/><use xlink:href="#6" y="6.513"/><use xlink:href="#7" y="8.684"/><use xlink:href="#8" y="10.855"/><use xlink:href="#9" y="15.197"/><use xlink:href="#10" y="17.368"/><use xlink:href="#11" y="19.539"/><use xlink:href="#12" y="21.71"/><use xlink:href="#13" y="23.881"/></svg><svg x="1500"><use xlink:href="#a"/><use xlink:href="#b" x="-.004" y="28.198"/><use xlink:href="#3"/><use xlink:href="#4" y="2.171"/><use xlink:href="#5" y="4.342"/><use xlink:href="#6" y="6.513"/><use xlink:href="#7" y="8.684"/><use xlink:href="#8" y="10.855"/><use xlink:href="#9" y="15.197"/><use xlink:href="#10" y="17.368"/><use xlink:href="#11" y="19.539"/><use xlink:href="#12" y="21.71"/><use xlink:href="#13" y="23.881"/><use xlink:href="#14" y="26.052"/></svg><svg x="1600"><use xlink:href="#a"/><use xlink:href="#b" x="-.004" y="30.369"/><use xlink:href="#3"/><use xlink:href="#4" y="2.171"/><use xlink:href="#5" y="4.342"/><use xlink:href="#6" y="6.513"/><use xlink:href="#7" y="8.684"/><use xlink:href="#8" y="10.855"/><use xlink:href="#9" y="15.197"/><use xlink:href="#10" y="17.368"/><use xlink:href="#11" y="19.539"/><use xlink:href="#12" y="21.71"/><use xlink:href="#13" y="23.881"/><use xlink:href="#14" y="26.052"/><use xlink:href="#15" y="28.223"/></svg><svg x="1700"><use xlink:href="#a"/><use xlink:href="#b" x="-.004" y="32.54"/><use xlink:href="#3"/><use xlink:href="#4" y="2.171"/><use xlink:href="#5" y="4.342"/><use xlink:href="#6" y="6.513"/><use xlink:href="#7" y="8.684"/><use xlink:href="#8" y="10.855"/><use xlink:href="#9" y="15.197"/><use xlink:href="#10" y="17.368"/><use xlink:href="#11" y="19.539"/><use xlink:href="#12" y="21.71"/><use xlink:href="#13" y="23.881"/><use xlink:href="#14" y="26.052"/><use xlink:href="#15" y="28.223"/><use xlink:href="#16" y="30.394"/></svg><svg x="1800"><use xlink:href="#a"/><use xlink:href="#b" x="-.004" y="34.711"/><use xlink:href="#3"/><use xlink:href="#4" y="2.171"/><use xlink:href="#5" y="4.342"/><use xlink:href="#6" y="6.513"/><use xlink:href="#7" y="8.684"/><use xlink:href="#8" y="10.855"/><use xlink:href="#9" y="15.197"/><use xlink:href="#10" y="17.368"/><use xlink:href="#11" y="19.539"/><use xlink:href="#12" y="21.71"/><use xlink:href="#13" y="23.881"/><use xlink:href="#14" y="26.052"/><use xlink:href="#15" y="28.223"/><use xlink:href="#16" y="30.394"/><use xlink:href="#17" y="32.565"/></svg><svg x="1900"><use xlink:href="#a"/><use xlink:href="#b" x="-.004" y="43.395"/><use xlink:href="#3"/><use xlink:href="#4" y="2.171"/><use xlink:href="#5" y="4.342"/><use xlink:href="#6" y="6.513"/><use xlink:href="#7" y="8.684"/><use xlink:href="#8" y="10.855"/><use xlink:href="#9" y="15.197"/><use xlink:href="#10" y="17.368"/><use xlink:href="#11" y="19.539"/><use xlink:href="#12" y="21.71"/><use xlink:href="#13" y="23.881"/><use xlink:href="#14" y="26.052"/><use xlink:href="#15" y="28.223"/><use xlink:href="#16" y="30.394"/><use xlink:href="#17" y="32.565"/><use xlink:href="#18" y="34.736"/><use xlink:href="#19" y="36.907"/><use xlink:href="#20" y="41.249"/></svg><svg x="2000"><use xlink:href="#a"/><use xlink:href="#b" x="9.996" y="43.395"/><use xlink:href="#3"/><use xlink:href="#4" y="2.171"/><use xlink:href="#5" y="4.342"/><use xlink:href="#6" y="6.513"/><use xlink:href="#7" y="8.684"/><use xlink:href="#8" y="10.855"/><use xlink:href="#9" y="15.197"/><use xlink:href="#10" y="17.368"/><use xlink:href="#11" y="19.539"/><use xlink:href="#12" y="21.71"/><use xlink:href="#13" y="23.881"/><use xlink:href="#14" y="26.052"/><use xlink:href="#15" y="28.223"/><use xlink:href="#16" y="30.394"/><use xlink:href="#17" y="32.565"/><use xlink:href="#18" y="34.736"/><use xlink:href="#19" y="36.907"/><use xlink:href="#20" y="41.249"/><use xlink:href="#1" y="43.42"/></svg><svg x="2100"><use xlink:href="#a"/><use xlink:href="#b" x="10.996" y="43.395"/><use xlink:href="#3"/><use xlink:href="#4" y="2.171"/><use xlink:href="#5" y="4.342"/><use xlink:href="#6" y="6.513"/><use xlink:href="#7" y="8.684"/><use xlink:href="#8" y="10.855"/><use xlink:href="#9" y="15.197"/><use xlink:href="#10" y="17.368"/><use xlink:href="#11" y="19.539"/><use xlink:href="#12" y="21.71"/><use xlink:href="#13" y="23.881"/><use xlink:href="#14" y="26.052"/><use xlink:href="#15" y="28.223"/><use xlink:href="#16" y="30.394"/><use xlink:href="#17" y="32.565"/><use xlink:href="#18" y="34.736"/><use xlink:href="#19" y="36.907"/><use xlink:href="#20" y="41.249"/><use xlink:href="#2" y="43.42"/></svg><svg x="2200"><use xlink:href="#a"/><use xlink:href="#b" x="11.996" y="43.395"/><use xlink:href="#3"/><use xlink:href="#4" y="2.171"/><use xlink:href="#5" y="4.342"/><use xlink:href="#6" y="6.513"/><use xlink:href="#7" y="8.684"/><use xlink:href="#8" y="10.855"/><use xlink:href="#9" y="15.197"/><use xlink:href="#10" y="17.368"/><use xlink:href="#11" y="19.539"/><use xlink:href="#12" y="21.71"/><use xlink:href="#13" y="23.881"/><use xlink:href="#14" y="26.052"/><use xlink:href="#15" y="28.223"/><use xlink:href="#16" y="30.394"/><use xlink:href="#17" y="32.565"/><use xlink:href="#18" y="34.736"/><use xlink:href="#19" y="36.907"/><use xlink:href="#20" y="41.249"/><use xlink:href="#3" y="43.42"/></svg><svg x="2300"><use xlink:href="#a"/><use xlink:href="#b" x="12.996" y="43.395"/><use xlink:href="#3"/><use xlink:href="#4" y="2.171"/><use xlink:href="#5" y="4.342"/><use xlink:href="#6" y="6.513"/><use xlink:href="#7" y="8.684"/><use xlink:href="#8" y="10.855"/><use xlink:href="#9" y="15.197"/><use xlink:href="#10" y="17.368"/><use xlink:href="#11" y="19.539"/><use xlink:href="#12" y="21.71"/><use xlink:href="#13" y="23.881"/><use xlink:href="#14" y="26.052"/><use xlink:href="#15" y="28.223"/><use xlink:href="#16" y="30.394"/><use xlink:href="#17" y="32.565"/><use xlink:href="#18" y="34.736"/><use xlink:href="#19" y="36.907"/><use xlink:href="#20" y="41.249"/><use xlink:href="#3" y="43.42"/></svg><svg x="2400"><use xlink:href="#a"/><use xlink:href="#b" x="-.004" y="43.395"/><use xlink:href="#4"/><use xlink:href="#5" y="2.171"/><use xlink:href="#6" y="4.342"/><use xlink:href="#7" y="6.513"/><use xlink:href="#8" y="8.684"/><use xlink:href="#9" y="13.026"/><use xlink:href="#10" y="15.197"/><use xlink:href="#11" y="17.368"/><use xlink:href="#12" y="19.539"/><use xlink:href="#13" y="21.71"/><use xlink:href="#14" y="23.881"/><use xlink:href="#15" y="26.052"/><use xlink:href="#16" y="28.223"/><use xlink:href="#17" y="30.394"/><use xlink:href="#18" y="32.565"/><use xlink:href="#19" y="34.736"/><use xlink:href="#20" y="39.078"/><use xlink:href="#3" y="41.249"/></svg><svg x="2500"><use xlink:href="#a"/><use xlink:href="#b" x="-.004" y="43.395"/><use xlink:href="#8"/><use xlink:href="#9" y="4.342"/><use xlink:href="#10" y="6.513"/><use xlink:href="#11" y="8.684"/><use xlink:href="#12" y="10.855"/><use xlink:href="#13" y="13.026"/><use xlink:href="#14" y="15.197"/><use xlink:href="#15" y="17.368"/><use xlink:href="#16" y="19.539"/><use xlink:href="#17" y="21.71"/><use xlink:href="#18" y="23.881"/><use xlink:href="#19" y="26.052"/><use xlink:href="#20" y="30.394"/><use xlink:href="#3" y="32.565"/><use xlink:href="#4" y="34.736"/><use xlink:href="#5" y="36.907"/><use xlink:href="#21" y="39.078"/><use xlink:href="#22" y="41.249"/></svg><svg x="2600"><use xlink:href="#a"/><use xlink:href="#b" x="9.996" y="43.395"/><use xlink:href="#8"/><use xlink:href="#9" y="4.342"/><use xlink:href="#10" y="6.513"/><use xlink:href="#11" y="8.684"/><use xlink:href="#12" y="10.855"/><use xlink:href="#13" y="13.026"/><use xlink:href="#14" y="15.197"/><use xlink:href="#15" y="17.368"/><use xlink:href="#16" y="19.539"/><use xlink:href="#17" y="21.71"/><use xlink:href="#18" y="23.881"/><use xlink:href="#19" y="26.052"/><use xlink:href="#20" y="30.394"/><use xlink:href="#3" y="32.565"/><use xlink:href="#4" y="34.736"/><use xlink:href="#5" y="36.907"/><use xlink:href="#21" y="39.078"/><use xlink:href="#22" y="41.249"/><use xlink:href="#1" y="43.42"/></svg><svg x="2700"><use xlink:href="#a"/><use xlink:href="#b" x="10.996" y="43.395"/><use xlink:href="#8"/><use xlink:href="#9" y="4.342"/><use xlink:href="#10" y="6.513"/><use xlink:href="#11" y="8.684"/><use xlink:href="#12" y="10.855"/><use xlink:href="#13" y="13.026"/><use xlink:href="#14" y="15.197"/><use xlink:href="#15" y="17.368"/><use xlink:href="#16" y="19.539"/><use xlink:href="#17" y="21.71"/><use xlink:href="#18" y="23.881"/><use xlink:href="#19" y="26.052"/><use xlink:href="#20" y="30.394"/><use xlink:href="#3" y="32.565"/><use xlink:href="#4" y="34.736"/><use xlink:href="#5" y="36.907"/><use xlink:href="#21" y="39.078"/><use xlink:href="#22" y="41.249"/><use xlink:href="#2" y="43.42"/></svg><svg x="2800"><use xlink:href="#a"/><use xlink:href="#b" x="11.996" y="43.395"/><use xlink:href="#8"/><use xlink:href="#9" y="4.342"/><use xlink:href="#10" y="6.513"/><use xlink:href="#11" y="8.684"/><use xlink:href="#12" y="10.855"/><use xlink:href="#13" y="13.026"/><use xlink:href="#14" y="15.197"/><use xlink:href="#15" y="17.368"/><use xlink:href="#16" y="19.539"/><use xlink:href="#17" y="21.71"/><use xlink:href="#18" y="23.881"/><use xlink:href="#19" y="26.052"/><use xlink:href="#20" y="30.394"/><use xlink:href="#3" y="32.565"/><use xlink:href="#4" y="34.736"/><use xlink:href="#5" y="36.907"/><use xlink:href="#21" y="39.078"/><use xlink:href="#22" y="41.249"/><use xlink:href="#3" y="43.42"/></svg><svg x="2900"><use xlink:href="#a"/><use xlink:href="#b" x="12.996" y="43.395"/><use xlink:href="#8"/><use xlink:href="#9" y="4.342"/><use xlink:href="#10" y="6.513"/><use xlink:href="#11" y="8.684"/><use xlink:href="#12" y="10.855"/><use xlink:href="#13" y="13.026"/><use xlink:href="#14" y="15.197"/><use xlink:href="#15" y="17.368"/><use xlink:href="#16" y="19.539"/><use xlink:href="#17" y="21.71"/><use xlink:href="#18" y="23.881"/><use xlink:href="#19" y="26.052"/><use xlink:href="#20" y="30.394"/><use xlink:href="#3" y="32.565"/><use xlink:href="#4" y="34.736"/><use xlink:href="#5" y="36.907"/><use xlink:href="#21" y="39.078"/><use xlink:href="#22" y="41.249"/><use xlink:href="#3" y="43.42"/></svg><svg x="3000"><use xlink:href="#a"/><use xlink:href="#b" x="13.996" y="43.395"/><use xlink:href="#8"/><use xlink:href="#9" y="4.342"/><use xlink:href="#10" y="6.513"/><use xlink:href="#11" y="8.684"/><use xlink:href="#12" y="10.855"/><use xlink:href="#13" y="13.026"/><use xlink:href="#14" y="15.197"/><use xlink:href="#15" y="17.368"/><use xlink:href="#16" y="19.539"/><use xlink:href="#17" y="21.71"/><use xlink:href="#18" y="23.881"/><use xlink:href="#19" y="26.052"/><use xlink:href="#20" y="30.394"/><use xlink:href="#3" y="32.565"/><use xlink:href="#4" y="34.736"/><use xlink:href="#5" y="36.907"/><use xlink:href="#21" y="39.078"/><use xlink:href="#22" y="41.249"/><text y="45.09" class="f">bash-4.4$</text><text x="10.02" y="45.09" class="f">ls</text><text x="13.026" y="45.09" class="f">w</text></svg><svg x="3100"><use xlink:href="#a"/><use xlink:href="#b" x="23.996" y="43.395"/><use xlink:href="#8"/><use xlink:href="#9" y="4.342"/><use xlink:href="#10" y="6.513"/><use xlink:href="#11" y="8.684"/><use xlink:href="#12" y="10.855"/><use xlink:href="#13" y="13.026"/><use xlink:href="#14" y="15.197"/><use xlink:href="#15" y="17.368"/><use xlink:href="#16" y="19.539"/><use xlink:href="#17" y="21.71"/><use xlink:href="#18" y="23.881"/><use xlink:href="#19" y="26.052"/><use xlink:href="#20" y="30.394"/><use xlink:href="#3" y="32.565"/><use xlink:href="#4" y="34.736"/><use xlink:href="#5" y="36.907"/><use xlink:href="#21" y="39.078"/><use xlink:href="#22" y="41.249"/><text y="45.09" class="f">bash-4.4$</text><text x="10.02" y="45.09" class="f">ls</text><text x="13.026" y="45.09" class="f">workspaces/</text></svg><svg x="3200"><use xlink:href="#a"/><use xlink:href="#b" x="33.996" y="43.395"/><use xlink:href="#8"/><use xlink:href="#9" y="4.342"/><use xlink:href="#10" y="6.513"/><use xlink:href="#11" y="8.684"/><use xlink:href="#12" y="10.855"/><use xlink:href="#13" y="13.026"/><use xlink:href="#14" y="15.197"/><use xlink:href="#15" y="17.368"/><use xlink:href="#16" y="19.539"/><use xlink:href="#17" y="21.71"/><use xlink:href="#18" y="23.881"/><use xlink:href="#19" y="26.052"/><use xlink:href="#20" y="30.394"/><use xlink:href="#3" y="32.565"/><use xlink:href="#4" y="34.736"/><use xlink:href="#5" y="36.907"/><use xlink:href="#21" y="39.078"/><use xlink:href="#22" y="41.249"/><use xlink:href="#23" y="43.42"/></svg><svg x="3300"><use xlink:href="#a"/><use xlink:href="#b" x="-.004" y="43.395"/><use xlink:href="#9" y="2.171"/><use xlink:href="#10" y="4.342"/><use xlink:href="#11" y="6.513"/><use xlink:href="#12" y="8.684"/><use xlink:href="#13" y="10.855"/><use xlink:href="#14" y="13.026"/><use xlink:href="#15" y="15.197"/><use xlink:href="#16" y="17.368"/><use xlink:href="#17" y="19.539"/><use xlink:href="#18" y="21.71"/><use xlink:href="#19" y="23.881"/><use xlink:href="#20" y="28.223"/><use xlink:href="#3" y="30.394"/><use xlink:href="#4" y="32.565"/><use xlink:href="#5" y="34.736"/><use xlink:href="#21" y="36.907"/><use xlink:href="#22" y="39.078"/><use xlink:href="#23" y="41.249"/></svg><svg x="3400"><use xlink:href="#a"/><use xlink:href="#b" x="-.004" y="43.395"/><use xlink:href="#9"/><use xlink:href="#10" y="2.171"/><use xlink:href="#11" y="4.342"/><use xlink:href="#12" y="6.513"/><use xlink:href="#13" y="8.684"/><use xlink:href="#14" y="10.855"/><use xlink:href="#15" y="13.026"/><use xlink:href="#16" y="15.197"/><use xlink:href="#17" y="17.368"/><use xlink:href="#18" y="19.539"/><use xlink:href="#19" y="21.71"/><use xlink:href="#20" y="26.052"/><use xlink:href="#3" y="28.223"/><use xlink:href="#4" y="30.394"/><use xlink:href="#5" y="32.565"/><use xlink:href="#21" y="34.736"/><use xlink:href="#22" y="36.907"/><use xlink:href="#23" y="39.078"/><use xlink:href="#24" y="41.249"/></svg><svg x="3500"><use xlink:href="#a"/><use xlink:href="#b" x="9.996" y="43.395"/><use xlink:href="#9"/><use xlink:href="#10" y="2.171"/><use xlink:href="#11" y="4.342"/><use xlink:href="#12" y="6.513"/><use xlink:href="#13" y="8.684"/><use xlink:href="#14" y="10.855"/><use xlink:href="#15" y="13.026"/><use xlink:href="#16" y="15.197"/><use xlink:href="#17" y="17.368"/><use xlink:href="#18" y="19.539"/><use xlink:href="#19" y="21.71"/><use xlink:href="#20" y="26.052"/><use xlink:href="#3" y="28.223"/><use xlink:href="#4" y="30.394"/><use xlink:href="#5" y="32.565"/><use xlink:href="#21" y="34.736"/><use xlink:href="#22" y="36.907"/><use xlink:href="#23" y="39.078"/><use xlink:href="#24" y="41.249"/><use xlink:href="#1" y="43.42"/></svg></svg></g></g></svg></svg>